<svg width="60" height="55" viewBox="0 0 60 55" fill="none" xmlns="http://www.w3.org/2000/svg">
<path d="M58.8633 18.1615C59.3203 17.7174 60 18.1328 60 18.8346V48.125C60 51.9206 57.4805 55 54.375 55H5.625C2.51953 55 0 51.9206 0 48.125V18.849C0 18.1328 0.667969 17.7318 1.13672 18.1758C3.76172 20.668 7.24219 23.8333 19.1953 34.4466C21.668 36.6523 25.8398 41.293 30 41.2643C34.1836 41.3073 38.4375 36.5664 40.8164 34.4466C52.7695 23.8333 56.2383 20.6536 58.8633 18.1615ZM30 36.6667C32.7188 36.724 36.6328 32.4844 38.6016 30.737C54.1523 16.944 55.3359 15.7409 58.9219 12.3034C59.6016 11.6589 60 10.6562 60 9.59635V6.875C60 3.07943 57.4805 0 54.375 0H5.625C2.51953 0 0 3.07943 0 6.875V9.59635C0 10.6562 0.398438 11.6445 1.07812 12.3034C4.66406 15.7266 5.84766 16.944 21.3984 30.737C23.3672 32.4844 27.2812 36.724 30 36.6667Z" fill="#FBBC05"/>
</svg>
