<svg width="60" height="60" viewBox="0 0 60 60" fill="none" xmlns="http://www.w3.org/2000/svg">
<path d="M55.7143 0H4.27232C1.91518 0 0 1.94196 0 4.32589V55.6741C0 58.058 1.91518 60 4.27232 60H55.7143C58.0714 60 60 58.058 60 55.6741V4.32589C60 1.94196 58.0714 0 55.7143 0ZM18.1339 51.4286H9.24107V22.7946H18.1473V51.4286H18.1339ZM13.6875 18.8839C10.8348 18.8839 8.53125 16.567 8.53125 13.7277C8.53125 10.8884 10.8348 8.57143 13.6875 8.57143C16.5268 8.57143 18.8437 10.8884 18.8437 13.7277C18.8437 16.5804 16.5402 18.8839 13.6875 18.8839ZM51.4687 51.4286H42.5759V37.5C42.5759 34.1786 42.5089 29.9062 37.9554 29.9062C33.3214 29.9062 32.6116 33.5223 32.6116 37.2589V51.4286H23.7188V22.7946H32.25V26.7054H32.3705C33.5625 24.4554 36.4688 22.0848 40.7946 22.0848C49.7946 22.0848 51.4687 28.0179 51.4687 35.7321V51.4286Z" fill="#227C9D"/>
</svg>
